# xmcd CD database file
#
# Track frame offsets:
#	150
#	16673
#	49357
#	62676
#	91209
#	116593
#	134370
#	166999
#	185918
#	211832
#	237857
#	257947
#	279391
#
# Disc length: 4104 seconds
#
# Revision: 0
# Processed by: cddbd v1.4PL0 Copyright (c) Steve Scherf et al.
# Submitted via: CDex 1.50
#
DISCID=b710060d
DTITLE=Bill Carrothers - After hours
DYEAR=1999
DGENRE=Jazz
TTITLE0=In the wee small hours
TTITLE1=On green dolphin St.
TTITLE2=On green dolphin St. (reprise)
TTITLE3=For heaven's sake
TTITLE4=Chelsea bridge
TTITLE5=It's easy to remember
TTITLE6=My heart belongs to daddy
TTITLE7=Lost in the stars
TTITLE8=A flower is a lovesome thing
TTITLE9=P.S. I love you
TTITLE10=Young and foolish
TTITLE11=For all we know
TTITLE12=The nearness of you
EXTD=YEAR: 1999
EXTT0=
EXTT1=
EXTT2=
EXTT3=
EXTT4=
EXTT5=
EXTT6=
EXTT7=
EXTT8=
EXTT9=
EXTT10=
EXTT11=
EXTT12=
PLAYORDER=
